<?xml version="1.0" encoding="utf-8"?>
<!-- Generator: Adobe Illustrator 18.1.1, SVG Export Plug-In . SVG Version: 6.00 Build 0)  -->
<!DOCTYPE svg PUBLIC "-//W3C//DTD SVG 1.1//EN" "http://www.w3.org/Graphics/SVG/1.1/DTD/svg11.dtd">
<svg version="1.1" id="Layer_1" xmlns="http://www.w3.org/2000/svg" xmlns:xlink="http://www.w3.org/1999/xlink" x="0px" y="0px"
	 viewBox="0 0 1440 447" enable-background="new 0 0 1440 447" xml:space="preserve">
<path id="starvinmarvininspace" fill="none" d="M96.7,53.4c36.2-9.8,74.4-12.2,111.5-7c36.5,5.1,71.5,17.4,107.5,25c41,8.6,83.1,11,124.9,11
	c174,0.1,347.3-39.9,520.9-27.1c80.1,5.9,163,22.7,239.1-3c33.2-11.2,64.4-30.3,99.3-32.9c58.1-4.4,114.6,46.1,116.7,104.3
	c0.3,8.1-0.4,16.5-4.6,23.4c-3.7,6.2-9.7,10.6-15.6,14.8c-21.7,15.6-43.5,31.1-65.2,46.7c-11.9,8.5-24.1,17.2-38.4,20.3
	c-13.8,3-28.1,0.5-41.8-2.7c-68-16.1-131.4-50.5-200.7-59.8c-9.6-1.3-19.8-2-28.6,2c-10.7,4.9-17.2,15.6-25,24.4
	c-35,39.4-97,39.4-147.7,25.1c-50.7-14.3-99.4-39.8-152-41.1c-8.1-0.2-16.4,0.2-24.1,2.8c-9.1,3.1-16.9,9.1-25,14.5
	c-41.6,27.6-94.3,37.9-143.2,28c-34.5-7-66.3-23.4-99.4-35.2c-33.2-11.8-70.1-19-103.3-7.1c-20.6,7.3-38.5,21.6-59.9,26.1
	c-40,8.5-77.8-18.6-111.6-41.7s-78.5-43.6-113.8-22.9c-3.9-21.5,6.3-43.7,22.2-58.7S75.6,59.1,96.7,53.4z"/>
<g>
<image overflow="visible" width="225" height="369" xlink:href="images/sm.jpg"  transform="matrix(0.24 0 0 0.24 35.5 142.5)">
</image>
	<animateMotion  fill="remove" dur="7s" calcMode="paced" additive="replace" accumulate="none" repeatCount="indefinite" restart="always">
		<mpath  xlink:href="#starvinmarvininspace"></mpath>
	</animateMotion>
</g>
</svg>
